<svg width="95" height="96" viewBox="0 0 95 96" fill="none" xmlns="http://www.w3.org/2000/svg">
<path fill-rule="evenodd" clip-rule="evenodd" d="M14.3291 13.8316L46.7136 45.2196L32.217 2.72959C32.4268 2.65731 32.6373 2.58646 32.8485 2.51705L43.3432 0.345714C44.4634 0.243605 45.5947 0.180324 46.7359 0.157227L48.6506 43.7172L67.9917 4.67119C70.7602 5.97727 73.3824 7.54253 75.8269 9.33568L53.7245 43.7172L89.97 25.8361C92.2958 30.3172 93.9297 35.2152 94.7301 40.3884L53.7245 47.2227L94.4939 56.4444C93.8799 59.7578 92.9225 62.9507 91.6601 65.9847L53.7245 49.7266L78.8392 83.7053C75.5422 86.5593 71.849 88.9678 67.8532 90.8371L51.7214 51.7297L45.2944 95.2353C43.4403 95.1422 41.6141 94.9431 39.8218 94.6437L38.2003 94.2962L48.7167 51.7297L16.4118 83.5452C12.0048 79.6908 8.31538 75.0364 5.57011 69.8085L46.7136 49.7266H0.184675C0.157108 49.0617 0.143188 48.3933 0.143188 47.7216C0.143188 45.2216 0.336023 42.7666 0.707631 40.3708L46.7136 47.2227L7.09087 22.9538C9.12711 19.6209 11.562 16.5581 14.3291 13.8316Z" fill="url(#paint0_radial_96_7104)" fill-opacity="0.35"/>
<path d="M58.7303 26.1739L58.3865 25.7378H57.8311H46.9596H36.0852H35.5299L35.1861 26.1739L25.1943 38.8467L24.6607 39.5235L25.1634 40.2236L46.0295 69.2801L46.9596 70.5753L47.8897 69.28L68.753 40.2235L69.2556 39.5235L68.722 38.8467L58.7303 26.1739Z" fill="#ED6FF7" stroke="white" stroke-width="2.29005"/>
<path d="M57.8311 26.8828H46.9596H36.0852L26.0935 39.5557L46.9596 68.6122L67.8229 39.5557L57.8311 26.8828Z" fill="#ED6FF7"/>
<path d="M46.9576 39.2295H36.5245L46.9576 68.6163L57.3878 39.2295H46.9576Z" fill="#E249F2"/>
<path d="M46.9576 26.8828L36.5245 39.2254H57.3878L46.9576 26.8828Z" fill="#FA6AFF"/>
<path d="M26.0935 39.5557H36.5265L46.9596 26.8828H36.0852L26.0935 39.5557Z" fill="#E249F2"/>
<path d="M57.3848 39.2254H67.8178L57.8261 26.8828H46.9545L57.3848 39.2254Z" fill="#F989FF"/>
<path d="M56.6079 41.5048C59.1058 41.5048 59.1058 37.6191 56.6079 37.6191C54.11 37.6191 54.11 41.5048 56.6079 41.5048Z" fill="white"/>
<defs>
<radialGradient id="paint0_radial_96_7104" cx="0" cy="0" r="1" gradientUnits="userSpaceOnUse" gradientTransform="translate(47.4366 47.6963) rotate(90) scale(47.539 47.2935)">
<stop offset="0.53125" stop-color="#FFD217"/>
<stop offset="1" stop-color="white" stop-opacity="0"/>
</radialGradient>
</defs>
</svg>
